<?xml version="1.0" standalone="no"?>
<!DOCTYPE svg PUBLIC "-//W3C//DTD SVG 20010904//EN"
 "http://www.w3.org/TR/2001/REC-SVG-20010904/DTD/svg10.dtd">
<svg version="1.0" xmlns="http://www.w3.org/2000/svg"
 width="444.000000pt" height="444.000000pt" viewBox="0 0 444.000000 444.000000"
 preserveAspectRatio="xMidYMid meet">
<metadata>
Created by potrace 1.11, written by Peter Selinger 2001-2013
</metadata>
<g transform="translate(0.000000,444.000000) scale(0.100000,-0.100000)"
fill="#000000" stroke="none">
<path d="M335 4148 c-3 -7 -4 -897 -3 -1978 l3 -1965 1880 0 1880 0 0 1975 0
1975 -164 3 c-97 1 -168 -1 -175 -7 -7 -6 -115 -242 -241 -525 -126 -284 -230
-514 -231 -513 -1 1 -117 227 -259 502 -141 275 -264 510 -271 523 l-14 22
-1201 0 c-950 0 -1201 -3 -1204 -12z m1650 -1865 c33 -13 65 -26 72 -29 6 -3
19 8 29 25 18 31 54 43 54 19 0 -14 -27 -178 -35 -215 -8 -35 -45 -31 -45 5 0
34 -31 101 -56 124 -35 31 -92 48 -161 48 -132 0 -251 -85 -318 -225 -41 -87
-55 -152 -55 -259 0 -101 21 -175 63 -223 41 -47 82 -63 160 -63 122 0 204 69
214 179 5 55 3 64 -17 86 -13 14 -34 25 -47 25 -16 0 -23 6 -23 20 0 19 7 20
154 20 149 0 154 -1 149 -20 -3 -12 -14 -20 -27 -20 -13 0 -32 -10 -44 -22
-21 -23 -72 -180 -72 -223 0 -30 -13 -39 -95 -64 -292 -90 -493 -9 -541 219
-66 316 217 652 526 623 30 -3 82 -16 115 -30z m1170 -4 l60 -29 26 31 c14 17
32 30 40 28 13 -4 12 -23 -10 -141 -20 -117 -27 -138 -42 -138 -13 0 -20 10
-24 38 -23 136 -76 192 -182 192 -76 0 -138 -26 -202 -86 -105 -97 -156 -241
-149 -419 4 -86 9 -108 32 -150 14 -28 43 -61 63 -75 32 -22 47 -25 122 -25
75 0 92 3 132 27 44 26 86 66 122 117 11 17 21 21 36 16 28 -8 18 -26 -60
-110 -95 -101 -197 -137 -324 -114 -118 21 -196 84 -238 192 -28 72 -27 216 2
307 45 142 147 267 267 326 121 60 223 64 329 13z"/>
</g>
</svg>
