<?xml version="1.0" standalone="no"?>
<!DOCTYPE svg PUBLIC "-//W3C//DTD SVG 20010904//EN"
 "http://www.w3.org/TR/2001/REC-SVG-20010904/DTD/svg10.dtd">
<svg version="1.0" xmlns="http://www.w3.org/2000/svg"
 width="255.000000pt" height="255.000000pt" viewBox="0 0 255.000000 255.000000"
 preserveAspectRatio="xMidYMid meet">
<metadata>
Created by potrace 1.11, written by Peter Selinger 2001-2013
</metadata>
<g transform="translate(0.000000,255.000000) scale(0.100000,-0.100000)"
fill="#000000" stroke="none">
<path d="M373 2505 c2 -24 6 -47 9 -51 13 -13 -5 -33 -40 -45 -51 -16 -60 -25
-73 -73 -14 -52 -43 -84 -86 -92 -18 -3 -36 -10 -39 -15 -3 -5 -13 -9 -23 -9
-26 0 -58 -40 -65 -81 -4 -21 -13 -42 -21 -49 -8 -7 -15 -21 -15 -31 0 -11 -4
-19 -10 -19 -6 0 -10 -35 -10 -85 0 -68 3 -87 15 -91 11 -5 13 -13 8 -28 -4
-11 -7 -113 -8 -226 -1 -152 2 -211 12 -230 9 -17 13 -67 13 -156 0 -72 3
-134 6 -137 4 -4 9 -91 11 -194 2 -106 9 -203 15 -223 7 -19 13 -39 14 -45 1
-5 9 -27 17 -48 13 -29 21 -37 42 -37 15 0 48 -17 78 -40 50 -38 53 -39 77
-23 14 9 62 54 107 100 45 46 97 90 115 99 18 8 48 24 66 35 24 16 32 17 32 7
0 -17 -41 -74 -73 -103 -13 -11 -40 -42 -62 -70 -42 -54 -77 -89 -113 -113
l-23 -15 48 -30 c26 -16 88 -70 138 -120 89 -90 89 -90 137 -88 28 1 60 -5 79
-15 39 -20 89 -73 89 -94 0 -9 5 -21 12 -28 9 -9 15 -1 27 35 9 25 23 50 31
54 44 22 139 39 255 45 104 6 140 12 182 30 99 44 174 33 285 -44 36 -24 57
-32 92 -32 24 0 56 -4 69 -9 21 -8 24 -15 21 -50 -3 -44 4 -49 48 -32 13 4 48
11 78 15 222 25 213 22 242 55 16 17 28 38 28 47 0 8 20 44 45 78 25 35 45 70
45 78 0 7 6 23 14 34 8 11 17 38 21 60 3 21 14 59 25 84 10 25 26 65 36 90 10
25 29 55 43 67 23 21 24 24 19 140 -4 95 -10 129 -29 175 -20 47 -24 71 -22
145 1 82 4 92 39 152 21 35 52 79 69 97 l32 34 -1 218 c-1 206 -2 219 -24 264
-28 57 -100 123 -143 132 -74 14 -135 125 -143 260 -4 68 -11 97 -29 128 -36
62 -83 73 -311 77 -198 3 -218 7 -279 58 l-29 23 -609 0 -610 0 4 -45z m242
-171 c-26 -54 -32 -74 -34 -100 -1 -6 -13 -29 -28 -50 -31 -45 -36 -100 -13
-130 14 -19 17 -54 11 -120 -1 -16 -44 -26 -52 -12 -4 6 -5 17 -2 23 2 7 -8
41 -23 76 -60 144 -26 289 67 289 16 0 29 4 29 9 0 5 12 23 26 40 14 17 23 31
19 31 -3 0 -3 5 1 11 4 7 10 7 16 1 7 -7 1 -29 -17 -68z m1227 -206 c-21 -21
-14 -72 18 -114 16 -21 30 -44 30 -51 1 -34 -102 -48 -125 -17 -17 23 -12 48
19 93 13 20 27 51 31 69 4 20 13 32 23 32 12 0 13 -3 4 -12z m-1022 -468 c10
-19 2 -34 -22 -43 -23 -8 -39 23 -29 57 3 11 44 0 51 -14z m196 -86 c12 -25
18 -66 19 -137 1 -56 6 -111 11 -122 10 -21 11 -114 0 -140 -7 -20 -32 -19
-41 3 -4 9 -9 55 -11 101 -1 46 -7 87 -12 90 -10 6 -14 177 -5 224 6 33 17 28
39 -19z m-876 -154 c22 -31 36 -79 23 -81 -5 0 -18 -2 -31 -5 -32 -6 -42 24
-33 104 2 21 19 13 41 -18z m1574 -432 c8 -33 8 -36 -9 -34 -9 1 -15 5 -15 9
0 4 0 16 0 27 0 27 16 25 24 -2z m82 -142 c18 -19 18 -32 -2 -40 -21 -8 -34 1
-34 23 0 32 14 38 36 17z m-70 -42 c32 -16 34 -19 34 -70 0 -29 -4 -56 -10
-59 -5 -3 -10 -16 -10 -29 0 -30 -5 -34 -35 -28 -16 3 -25 11 -25 24 0 10 -7
29 -15 41 -14 22 -14 45 0 105 9 37 14 38 61 16z m-916 -434 c0 -23 -29 -35
-36 -15 -4 8 -4 22 0 30 7 20 36 8 36 -15z m55 -80 c6 0 2 -7 -8 -15 -21 -16
-47 -10 -47 11 0 9 8 12 23 10 12 -3 27 -5 32 -6z"/>
</g>
</svg>
